<?xml version="1.0" encoding="UTF-8"?>
<svg width="512px" height="512px" viewBox="0 0 512 512" version="1.1" xmlns="http://www.w3.org/2000/svg"
  xmlns:xlink="http://www.w3.org/1999/xlink">
  <title> @ttsalpha/qrcode </title>
  <defs>
    <path
      d="M120,0 L392,0 C458.27417,-1.42108547e-14 512,53.72583 512,120 L512,392 C512,458.27417 458.27417,512 392,512 L120,512 C53.72583,512 0,458.27417 0,392 L0,120 C-1.42108547e-14,53.72583 53.72583,1.42108547e-14 120,0 Z"
      id="path-1"></path>
  </defs>
  <g id="-512x512" stroke="none" fill="none" xlink:href="#path-1" fill-rule="evenodd">
    <use fill="#FFFFFF" xlink:href="#path-1"></use>
    <g id="Group" stroke-width="1" transform="translate(81.0817, 65.058)">
      <g fill="#14B8A6" fill-rule="nonzero" id="Path">
        <path
          d="M221.06728,0.288497269 C225.00228,-0.275202731 232.39128,0.159097269 236.54028,0.169397269 L264.94028,0.173097269 L299.89928,0.160597269 C306.20628,0.158497269 314.29428,-0.229302731 320.41028,0.693097269 C329.95228,2.44079727 337.97628,7.94399727 343.50928,15.6777973 C351.18028,26.3999973 349.85228,36.4169973 349.84428,48.8589973 L349.82428,79.6829973 L349.83728,111.595997 C349.86328,125.137997 351.31028,135.841997 342.11728,147.171997 C336.13428,154.581997 327.45128,159.309997 317.98028,160.312997 C313.97828,160.869997 306.92528,160.460997 302.71528,160.451997 L273.50828,160.447997 L238.50428,160.468997 C232.39028,160.471997 224.14628,160.849997 218.24128,159.988997 C204.54128,157.989997 191.93728,145.830997 189.66928,132.127997 C188.69528,126.240997 189.10628,117.958997 189.10928,111.778997 L189.11928,79.0889973 L189.11228,48.7209973 C189.09228,34.9808973 187.70628,24.8612973 197.04628,13.3865973 C203.03628,6.05239727 211.65728,1.35149727 221.06728,0.288497269 Z">
        </path>
        <path
          d="M32.8242804,0.292597269 C32.8572804,0.287697269 32.8892804,0.282697269 32.9222804,0.277697269 C39.0642804,0.0307972693 45.6742804,0.168797269 51.7852804,0.173697269 L87.0262804,0.173897269 L114.76628,0.147597269 C119.65228,0.143297269 126.27328,-0.183902731 130.98528,0.580997269 C143.08628,2.76419727 153.12628,10.8088973 157.93328,22.0559973 C161.72828,30.9343973 160.74928,39.5679973 160.74228,48.9779973 L160.72528,80.6919973 L160.74828,112.427997 C160.77228,125.376997 162.09528,136.531997 153.09828,147.267997 C146.37828,155.284997 139.29728,159.268997 128.88928,160.414997 C107.34628,160.765997 84.9392804,160.455997 63.3382804,160.464997 L43.3822804,160.466997 C31.3702804,160.462997 22.9602804,160.517997 13.0696804,152.427997 C6.63868039,147.167997 0.878380393,137.990997 0.283180393,129.569997 C-0.178819607,123.032997 0.0856803928,115.904997 0.0893803928,109.347997 L0.0966803928,73.3119973 L0.0802803928,46.3509973 C0.0633803928,33.1067973 -0.748019607,24.0217973 8.47058039,13.0442973 C14.5817804,5.73929727 23.3392804,1.15399727 32.8242804,0.292597269 Z">
        </path>
        <path
          d="M31.2712804,235.029997 C35.7452804,234.461997 42.9962804,234.886997 47.6592804,234.893997 L78.0702804,234.894997 L109.47028,234.865997 C123.22128,234.849997 133.41728,233.453997 144.69928,243.145997 C151.56728,249.094997 155.77328,257.542997 156.38028,266.609997 C156.69128,271.358997 156.47028,278.884997 156.46528,283.831997 L156.46028,315.374997 L156.47528,338.478997 C156.47728,343.649997 156.78928,349.593997 155.90128,354.557997 C153.96228,365.394997 146.68528,375.064997 136.53328,379.443997 C132.95128,380.988997 129.89128,382.214997 125.97928,382.429997 C121.70928,382.886997 113.76228,382.667997 109.15428,382.667997 L78.8382804,382.654997 L48.9732804,382.664997 C43.6232804,382.667997 34.8282804,382.911997 29.8142804,382.102997 C24.0772804,381.174997 18.6553804,378.851997 14.0261804,375.337997 C7.05978039,370.009997 1.40728039,361.581997 0.395380393,352.800997 C-0.0939196072,348.554997 0.0899803928,342.333997 0.0890803928,337.927997 L0.0983803928,311.816997 L0.107780393,282.344997 C0.0985803928,276.388997 -0.350619607,268.813997 0.655780393,263.072997 C3.35988039,247.649997 16.2553804,236.867997 31.2712804,235.029997 Z">
        </path>
      </g>
      <g transform="translate(33.3388, 33.6248)" fill="#FFFFFF" fill-rule="nonzero" id="Path">
        <path
          d="M198.002493,0.149350049 C200.692493,-0.112149951 206.624493,0.0488500489 209.528493,0.0508500489 L231.855493,0.0633500489 L258.877493,0.0509500489 C263.919493,0.0502500489 268.878493,0.0123500489 273.958493,0.198950049 C277.717493,0.337050049 282.146493,3.29715005 282.765493,7.17815005 C283.310493,10.58915 283.060493,15.19315 283.063493,18.73415 L283.069493,41.36315 L283.065493,69.51115 C283.064493,74.36715 283.141493,79.38315 282.968493,84.23015 C282.902493,86.08415 282.449493,87.77015 281.352493,89.26915 C279.358493,91.99115 277.705493,92.67215 274.641493,93.30215 C269.921493,93.66315 263.469493,93.48915 258.627493,93.48815 L231.536493,93.47815 L210.156493,93.50715 C205.686493,93.51315 201.222493,93.60115 196.757493,93.22815 C193.428493,92.95015 189.417493,89.57315 189.073493,86.17915 C188.707493,82.55815 188.848493,78.56615 188.846493,74.90115 L188.846493,53.91015 L188.837493,24.90215 C188.835493,19.75415 188.794493,14.64715 188.942493,9.50015005 C189.109493,3.67015005 192.315493,0.849650049 198.002493,0.149350049 Z">
        </path>
        <path
          d="M9.11449305,0.147250049 C11.3124931,-0.101449951 16.8604931,0.0471500489 19.3384931,0.0503500489 L39.7304931,0.0691500489 L68.7764931,0.0540500489 C74.2304931,0.0525500489 79.6264931,0.00695004891 85.1104931,0.188050049 C88.8524931,0.311550049 93.3504931,2.99315005 94.0104931,6.93515005 C94.5394931,10.10015 94.3294931,14.31815 94.3274931,17.58715 L94.3224931,36.26015 L94.3394931,67.40815 C94.3414931,72.84915 94.3924931,78.28115 94.2744931,83.72115 C94.1524931,89.35415 91.4524931,92.30115 85.8924931,93.31515 C80.4224931,93.61215 74.3474931,93.49015 68.8164931,93.49215 L42.2394931,93.49515 L21.6624931,93.50615 C16.7134931,93.50815 8.60349305,94.23215 4.39149305,91.90215 C-0.910506948,88.96915 0.0684930518,81.43515 0.0754930518,76.47415 L0.0804930518,57.30215 L0.0754930518,25.76115 C0.0754930518,20.09315 -0.0335069482,14.39715 0.217493052,8.73915005 C0.451493052,3.46815005 4.25349305,0.859850049 9.11449305,0.147250049 Z">
        </path>
        <path
          d="M10.9384931,234.43915 C25.8504931,234.19015 41.5624931,234.44815 56.5314931,234.43615 L72.5594931,234.42915 C79.5494931,234.43415 89.1554931,233.22715 90.4704931,243.33815 C90.8774931,246.46215 90.6084931,250.43115 90.6114931,253.64415 L90.6224931,272.57815 L90.6234931,293.79015 C90.6214931,302.70415 92.7084931,314.86915 80.3924931,315.81715 L32.8304931,315.82315 L18.0264931,315.84315 C14.9934931,315.85315 12.1394931,315.86115 9.08949305,315.69115 C4.49949305,315.43515 0.295493052,310.97215 0.127493052,306.42415 C-0.0185069482,302.48815 0.0724930518,298.31215 0.0724930518,294.31115 L0.0744930518,270.66615 L0.0794930518,253.43815 C0.0784930518,244.54715 -1.42550695,234.94215 10.9384931,234.43915 Z">
        </path>
      </g>
      <g transform="translate(0.0589, 178.882)" fill-rule="nonzero" id="Path">
        <path
          d="M194.792383,0.166046802 C199.952383,-0.0699531981 205.568383,0.210046802 210.716383,0.0830468019 C228.154383,-0.348953198 241.141383,1.5340468 255.148383,13.2590468 C265.277383,21.8640468 271.987383,33.8140468 274.060383,46.9420468 C274.494383,49.5790468 274.914383,54.5450468 275.021383,57.2470468 C275.415383,67.1850468 282.694383,75.7500468 292.664383,76.8530468 C298.528383,77.5010468 302.990383,76.8800468 309.600383,78.0800468 C317.993383,79.5710468 325.846383,83.2460468 332.367383,88.7360468 C341.971383,96.7770468 348.632383,108.174047 349.670383,120.746047 C350.036383,125.169047 349.897383,130.477047 349.897383,134.968047 L349.885383,157.827047 L349.891383,172.112047 C349.897383,174.942047 350.051383,179.268047 349.585383,181.930047 C349.059383,184.915047 347.727383,187.700047 345.733383,189.982047 C342.296383,193.981047 338.138383,195.462047 332.997383,195.847047 C329.032383,195.690047 325.192383,194.648047 322.105383,192.056047 C319.368383,189.712047 317.459383,186.548047 316.661383,183.035047 C315.843383,179.543047 316.114383,172.395047 316.118383,168.559047 L316.144383,142.694047 C316.148383,138.286047 316.319383,132.948047 316.003383,128.634047 C315.692383,121.020047 309.610383,113.492047 301.892383,112.318047 C294.939383,111.261047 288.135383,111.857047 280.923383,110.067047 C260.492383,104.996047 244.896383,88.0750468 241.298383,67.3530468 C240.687383,63.8320468 240.784383,60.0880468 240.429383,56.5360468 C239.976383,51.6840468 238.055383,47.0840468 234.921383,43.3520468 C228.565383,35.8110468 222.084383,35.2620468 213.058383,35.3000468 L201.661383,35.3520468 C194.646383,35.3840468 189.194383,35.9930468 183.435383,31.1340468 C179.910383,28.1030468 177.734383,23.7940468 177.388383,19.1580468 C176.801383,11.2500468 181.934383,3.2680468 189.583383,0.960046802 C191.418383,0.406046802 192.885383,0.288046802 194.792383,0.166046802 Z"
          fill="#222222"></path>
        <path
          d="M17.7871832,0.165046802 C26.5273832,-0.145953198 36.7913832,0.0870468019 45.6103832,0.0870468019 L97.4563832,0.0950468019 L126.606383,0.0930468019 C132.677383,0.0930468019 144.506383,-0.682953198 149.547383,2.2470468 C164.698383,11.0540468 160.175383,34.0110468 141.922383,35.3210468 L54.8123832,35.3290468 L29.6153832,35.3330468 C24.8633832,35.3340468 19.8963832,35.5580468 15.1990832,35.0520468 C1.19378319,33.5090468 -4.76521681,16.5760468 4.35708319,6.1620468 C8.16228319,1.8180468 12.1983832,0.516046802 17.7871832,0.165046802 Z"
          fill="#14B8A6"></path>
        <path
          d="M193.269383,154.144047 C195.589383,153.853047 202.849383,154.039047 205.580383,154.038047 L231.130383,154.033047 L262.404383,154.038047 C267.963383,154.040047 273.879383,153.872047 279.402383,154.322047 C283.009383,154.617047 286.169383,155.879047 289.114383,158.020047 C293.559383,161.252047 296.497383,166.155047 297.251383,171.599047 C299.002383,183.466047 290.808383,193.141047 279.168383,194.721047 C275.845383,195.085047 268.552383,194.898047 264.900383,194.898047 L237.648383,194.902047 L208.818383,194.906047 C204.609383,194.906047 200.246383,194.801047 196.053383,194.870047 C169.719383,195.302047 166.526383,157.764047 193.269383,154.144047 Z"
          fill="#222222"></path>
        <path
          d="M324.443383,0.145046802 C337.911383,-0.321953198 349.232383,10.1670468 349.793383,23.6310468 C350.355383,37.0950468 339.947383,48.4900468 326.487383,49.1470468 C312.892383,49.8100468 301.357383,39.2740468 300.790383,25.6750468 C300.223383,12.0750468 310.840383,0.616046802 324.443383,0.145046802 Z"
          fill="#222222"></path>
        <path
          d="M199.465383,78.9110468 C212.859383,77.5140468 224.862383,87.2100468 226.311383,100.599047 C227.761383,113.988047 218.111383,126.029047 204.728383,127.531047 C191.270383,129.041047 179.148383,119.326047 177.691383,105.863047 C176.233383,92.3990468 185.996383,80.3150468 199.465383,78.9110468 Z"
          fill="#222222"></path>
      </g>
    </g>
  </g>
</svg>
